<?xml version="1.0" standalone="no"?>
<!DOCTYPE svg PUBLIC "-//W3C//DTD SVG 20010904//EN"
 "http://www.w3.org/TR/2001/REC-SVG-20010904/DTD/svg10.dtd">
<svg version="1.0" xmlns="http://www.w3.org/2000/svg"
 width="322.000000pt" height="322.000000pt" viewBox="0 0 322.000000 322.000000"
 preserveAspectRatio="xMidYMid meet">
<metadata>
Created by potrace 1.16, written by Peter Selinger 2001-2019
</metadata>
<g transform="translate(0.000000,322.000000) scale(0.100000,-0.100000)"
fill="#000000" stroke="none">
<path d="M1403 3204 c-355 -52 -652 -197 -904 -441 -286 -277 -439 -594 -486
-1001 -15 -123 -15 -160 -4 -270 20 -209 59 -358 136 -535 82 -185 196 -347
351 -497 271 -263 575 -403 965 -448 126 -14 164 -14 270 -4 397 39 735 193
1002 456 147 144 239 275 331 466 105 220 150 425 150 680 0 183 -16 294 -66
465 -34 116 -135 329 -204 432 -221 324 -560 564 -933 658 -210 53 -419 67
-608 39z m520 -43 c637 -136 1114 -618 1244 -1256 28 -137 25 -473 -5 -608
-72 -323 -209 -576 -436 -802 -229 -229 -486 -368 -806 -436 -153 -33 -458
-34 -612 -1 -215 45 -440 142 -615 265 -113 79 -291 257 -370 370 -125 178
-222 403 -265 620 -32 161 -32 433 0 594 66 331 231 630 470 854 236 222 521
360 851 414 127 21 416 13 544 -14z"/>
<path d="M1418 2794 c-115 -17 -251 -64 -365 -123 -715 -376 -860 -1335 -288
-1906 526 -527 1393 -453 1827 155 88 123 161 293 199 465 9 39 14 121 13 235
-1 193 -17 280 -83 444 -105 262 -320 493 -578 620 -222 110 -477 149 -725
110z m487 -48 c113 -31 272 -103 366 -167 89 -60 238 -207 297 -292 155 -225
219 -443 209 -722 -6 -183 -33 -298 -105 -450 -63 -131 -116 -208 -211 -308
-184 -194 -425 -319 -691 -358 -123 -18 -322 -7 -443 25 -524 136 -887 600
-887 1136 0 559 390 1034 945 1151 137 28 383 21 520 -15z"/>
<path d="M1600 2628 c-11 -18 -18 -42 -16 -52 6 -25 -10 -46 -37 -46 -27 0
-87 -38 -87 -56 0 -7 13 -23 30 -35 l29 -22 -40 -30 c-22 -16 -52 -51 -67 -78
-22 -36 -31 -46 -42 -38 -8 5 -41 9 -72 9 -47 0 -62 -5 -88 -27 -28 -23 -31
-31 -28 -70 l3 -43 -92 0 c-93 0 -93 0 -93 -25 0 -20 -5 -25 -25 -25 l-25 0 0
-543 c0 -597 1 -603 60 -686 40 -55 103 -94 187 -115 148 -38 259 -88 341
-154 41 -33 44 -33 62 -17 10 9 25 15 32 13 7 -3 30 10 51 27 58 50 142 91
246 120 240 67 325 143 351 312 7 42 9 259 8 578 l-3 510 -102 3 -103 3 0 35
c0 19 -5 44 -10 55 -23 42 -107 63 -151 37 -16 -9 -23 -10 -26 -2 -15 41 -70
109 -106 132 l-43 26 30 21 c17 11 32 28 34 37 4 22 -44 53 -83 53 -28 0 -30
3 -36 42 -5 44 -32 83 -56 83 -7 0 -22 -15 -33 -32z m145 -272 c57 -31 95 -90
102 -159 l6 -57 -81 0 -81 0 -10 38 c-5 20 -12 52 -16 70 -5 25 -12 32 -29 32
-19 0 -25 -9 -40 -72 -18 -79 -64 -180 -83 -186 -7 -2 1 21 17 50 16 29 30 56
30 61 0 4 -29 7 -65 7 l-65 0 0 38 c0 21 12 62 26 91 55 110 179 147 289 87z
m-367 -122 c23 -16 30 -58 11 -69 -6 -4 -20 2 -33 14 -12 11 -37 26 -55 32
-28 10 -36 9 -59 -8 -43 -32 -40 -59 11 -112 64 -67 87 -101 87 -127 0 -32
-13 -37 -52 -20 -28 12 -29 14 -10 15 35 1 27 31 -28 106 -60 82 -67 130 -24
164 33 26 118 29 152 5z m780 -347 c-3 -40 -4 -42 -32 -39 -24 3 -28 1 -22
-13 3 -9 6 -172 6 -361 l0 -344 25 0 c23 0 25 -4 25 -40 l0 -40 -515 0 -515 0
0 24 c0 13 -3 31 -6 40 -5 13 1 16 25 16 l31 0 0 360 0 360 -25 0 c-20 0 -25
5 -25 24 0 13 -3 31 -6 40 -5 13 53 15 516 15 l521 -1 -3 -41z m-654 -919 c18
-25 13 -38 -17 -38 -20 -1 -20 -2 6 -16 20 -11 27 -22 27 -44 0 -50 -44 -77
-106 -65 -41 7 -76 51 -53 66 8 5 21 9 29 9 10 0 7 5 -8 16 -26 18 -28 50 -5
76 25 27 107 25 127 -4z m188 5 c21 -19 23 -42 4 -68 -11 -16 -11 -23 6 -51
24 -41 18 -52 -22 -46 -21 3 -35 13 -46 33 -15 30 -32 39 -31 17 1 -41 -4 -48
-33 -48 l-30 0 0 90 0 90 67 0 c48 0 72 -5 85 -17z m129 -25 l12 -43 11 40
c11 38 14 40 54 43 l42 3 0 -90 0 -91 -30 0 c-28 0 -30 3 -31 38 -1 38 -3 37
-13 -11 -6 -23 -11 -28 -33 -25 -21 2 -29 11 -39 43 l-12 40 -1 -42 c-1 -39
-3 -43 -26 -43 -25 0 -25 1 -25 90 l0 90 40 0 c38 0 40 -2 51 -42z"/>
<path d="M1245 1493 c4 -197 8 -359 9 -360 1 -2 177 -3 392 -3 l389 -1 0 358
0 358 -398 3 -399 2 7 -357z m333 -185 l3 -138 -41 0 -40 0 0 75 0 75 -60 0
-60 0 0 65 0 66 98 -3 97 -3 3 -137z"/>
</g>
</svg>
