<?xml version="1.0" standalone="no"?>
<!DOCTYPE svg PUBLIC "-//W3C//DTD SVG 20010904//EN"
 "http://www.w3.org/TR/2001/REC-SVG-20010904/DTD/svg10.dtd">
<svg version="1.0" xmlns="http://www.w3.org/2000/svg"
 width="134.000000pt" height="130.000000pt" viewBox="0 0 134.000000 130.000000"
 preserveAspectRatio="xMidYMid meet">

<g transform="translate(0.000000,130.000000) scale(0.100000,-0.100000)"
fill="#000000" stroke="none">
<path d="M660 1205 c-7 -9 -11 -17 -9 -20 3 -2 10 5 17 15 14 24 10 26 -8 5z"/>
<path d="M487 1183 c-4 -3 -7 -11 -7 -17 0 -6 4 -4 10 4 7 12 12 11 32 -5 l23
-20 -19 23 c-20 23 -28 26 -39 15z"/>
<path d="M711 1124 c0 -11 3 -14 6 -6 3 7 2 16 -1 19 -3 4 -6 -2 -5 -13z"/>
<path d="M955 1120 c-3 -6 1 -7 9 -4 18 7 21 14 7 14 -6 0 -13 -4 -16 -10z"/>
<path d="M562 1104 c10 -10 20 -16 22 -13 3 3 -5 11 -17 18 -21 13 -21 12 -5
-5z"/>
<path d="M482 1085 c0 -16 2 -22 5 -12 2 9 2 23 0 30 -3 6 -5 -1 -5 -18z"/>
<path d="M902 1080 c-18 -17 -29 -30 -24 -30 5 0 21 14 37 30 37 38 30 38 -13
0z"/>
<path d="M420 1065 c13 -14 26 -25 28 -25 3 0 -5 11 -18 25 -13 14 -26 25 -28
25 -3 0 5 -11 18 -25z"/>
<path d="M1096 1017 c3 -10 9 -15 12 -12 3 3 0 11 -7 18 -10 9 -11 8 -5 -6z"/>
<path d="M227 1003 c-12 -11 -8 -30 13 -54 l20 -24 -17 33 c-16 28 -16 34 -3
42 8 5 10 10 4 10 -6 0 -14 -3 -17 -7z"/>
<path d="M351 980 c-13 -11 -19 -20 -14 -20 6 0 18 9 28 20 23 25 17 25 -14 0z"/>
<path d="M474 931 c3 -5 37 -30 75 -56 113 -77 180 -70 296 31 l40 35 -53 -30
c-29 -17 -75 -38 -102 -47 -45 -15 -53 -15 -104 0 -31 9 -79 30 -107 46 -28
17 -48 26 -45 21z"/>
<path d="M260 916 c0 -2 8 -10 18 -17 15 -13 16 -12 3 4 -13 16 -21 21 -21 13z"/>
<path d="M1186 873 c-6 -14 -5 -15 5 -6 7 7 10 15 7 18 -3 3 -9 -2 -12 -12z"/>
<path d="M1144 828 l-19 -23 23 19 c21 18 27 26 19 26 -2 0 -12 -10 -23 -22z"/>
<path d="M406 831 c-4 -6 -6 -11 -4 -11 2 0 33 -2 69 -4 49 -3 80 -11 118 -31
28 -16 51 -32 51 -37 0 -5 -14 -30 -31 -54 -41 -60 -76 -148 -85 -212 l-7 -52
42 0 c40 0 41 1 41 36 0 83 51 234 79 234 15 0 53 -101 68 -187 l16 -83 38 0
c38 0 38 0 33 33 -18 97 -51 178 -101 245 -24 32 -24 34 -8 52 27 29 102 54
166 54 40 1 59 5 59 14 0 17 -104 16 -167 -3 -28 -8 -62 -24 -76 -35 l-25 -20
-61 32 c-46 24 -77 32 -134 36 -49 3 -77 1 -81 -7z m325 -147 c58 -85 101
-244 66 -244 -9 0 -20 29 -31 86 -9 47 -29 109 -44 137 -34 66 -35 67 -28 67
3 0 19 -21 37 -46z m-89 4 c-26 -43 -43 -98 -57 -178 -8 -50 -15 -66 -29 -68
-17 -4 -18 1 -11 44 9 63 38 136 76 190 35 51 50 59 21 12z"/>
<path d="M1105 799 c-4 -6 -5 -12 -2 -15 2 -3 7 2 10 11 7 17 1 20 -8 4z"/>
<path d="M158 733 c7 -3 16 -2 19 1 4 3 -2 6 -13 5 -11 0 -14 -3 -6 -6z"/>
<path d="M105 720 c-3 -6 1 -7 9 -4 18 7 21 14 7 14 -6 0 -13 -4 -16 -10z"/>
<path d="M107 689 c7 -7 15 -10 18 -7 3 3 -2 9 -12 12 -14 6 -15 5 -6 -5z"/>
<path d="M1135 670 c-3 -6 1 -7 9 -4 18 7 21 14 7 14 -6 0 -13 -4 -16 -10z"/>
<path d="M138 523 c6 -2 18 -2 25 0 6 3 1 5 -13 5 -14 0 -19 -2 -12 -5z"/>
<path d="M1110 506 c0 -2 8 -10 18 -17 15 -13 16 -12 3 4 -13 16 -21 21 -21
13z"/>
<path d="M1179 448 c14 -16 20 -32 16 -40 -7 -10 -5 -11 6 0 11 10 8 17 -16
40 l-29 27 23 -27z"/>
<path d="M189 443 c-13 -16 -12 -17 4 -4 16 13 21 21 13 21 -2 0 -10 -8 -17
-17z"/>
<path d="M1060 400 c-6 -11 -8 -20 -6 -20 3 0 10 9 16 20 6 11 8 20 6 20 -3 0
-10 -9 -16 -20z"/>
<path d="M453 365 c0 -27 2 -38 4 -22 2 15 2 37 0 50 -2 12 -4 0 -4 -28z"/>
<path d="M483 365 c0 -27 2 -38 4 -22 2 15 2 37 0 50 -2 12 -4 0 -4 -28z"/>
<path d="M523 370 c0 -25 2 -35 4 -22 2 12 2 32 0 45 -2 12 -4 2 -4 -23z"/>
<path d="M552 403 c12 -3 18 -17 21 -46 l4 -42 1 42 c2 30 7 43 20 46 9 3 -1
5 -23 5 -22 0 -32 -2 -23 -5z"/>
<path d="M630 365 c0 -38 3 -45 19 -45 21 0 51 25 51 41 0 25 -23 49 -45 49
-23 0 -25 -4 -25 -45z m55 15 c7 -23 -10 -50 -31 -50 -9 0 -14 12 -14 35 0 28
4 35 19 35 11 0 23 -9 26 -20z"/>
<path d="M723 388 c4 -12 1 -29 -6 -37 -10 -14 -10 -14 5 -3 9 8 22 11 28 7
17 -10 11 -23 -12 -28 -13 -2 -7 -4 12 -3 30 1 35 5 37 25 1 16 -2 20 -7 11
-13 -21 -32 -2 -20 20 7 13 7 21 0 25 -6 4 -9 1 -8 -6 2 -6 -3 -14 -11 -17
-10 -3 -12 0 -8 12 4 9 1 16 -4 16 -7 0 -9 -9 -6 -22z"/>
<path d="M811 363 l2 -48 6 39 6 40 13 -38 c8 -21 16 -36 18 -34 6 7 -28 88
-38 88 -4 0 -7 -21 -7 -47z"/>
<path d="M876 394 c-4 -9 -4 -19 -1 -22 3 -3 6 1 6 9 1 8 5 -4 9 -26 l7 -40 2
48 c1 46 -11 63 -23 31z"/>
<path d="M261 397 c2 -1 13 -9 24 -17 19 -14 19 -14 6 3 -7 9 -18 17 -24 17
-6 0 -8 -1 -6 -3z"/>
<path d="M1085 340 c10 -11 20 -20 23 -20 3 0 -3 9 -13 20 -10 11 -20 20 -23
20 -3 0 3 -9 13 -20z"/>
<path d="M351 297 c2 -1 13 -9 24 -17 19 -14 19 -14 6 3 -7 9 -18 17 -24 17
-6 0 -8 -1 -6 -3z"/>
<path d="M890 237 c0 -2 15 -16 33 -33 l32 -29 -29 33 c-28 30 -36 37 -36 29z"/>
<path d="M429 193 l-34 -38 38 34 c20 19 37 36 37 38 0 8 -8 0 -41 -34z"/>
<path d="M758 183 c7 -3 16 -2 19 1 4 3 -2 6 -13 5 -11 0 -14 -3 -6 -6z"/>
<path d="M492 140 c0 -19 2 -27 5 -17 2 9 2 25 0 35 -3 9 -5 1 -5 -18z"/>
<path d="M862 130 c0 -14 2 -19 5 -12 2 6 2 18 0 25 -3 6 -5 1 -5 -13z"/>
<path d="M815 110 c10 -11 20 -20 23 -20 3 0 -3 9 -13 20 -10 11 -20 20 -23
20 -3 0 3 -9 13 -20z"/>
<path d="M526 95 c-11 -8 -15 -15 -9 -15 6 0 16 7 23 15 16 19 11 19 -14 0z"/>
</g>
</svg>
